<?xml version="1.0" encoding="UTF-8" standalone="no"?>
<!-- Created with Inkscape (http://www.inkscape.org/) -->

<svg
   width="1024mm"
   height="1024mm"
   viewBox="0 0 1024 1024"
   version="1.1"
   id="svg1"
   inkscape:version="1.4.3 (0d15f75, 2025-12-25)"
   sodipodi:docname="ProjectTickCGit.svg"
   xml:space="preserve"
   xmlns:inkscape="http://www.inkscape.org/namespaces/inkscape"
   xmlns:sodipodi="http://sodipodi.sourceforge.net/DTD/sodipodi-0.dtd"
   xmlns="http://www.w3.org/2000/svg"
   xmlns:svg="http://www.w3.org/2000/svg"><sodipodi:namedview
     id="namedview1"
     pagecolor="#ffffff"
     bordercolor="#000000"
     borderopacity="0.25"
     inkscape:showpageshadow="2"
     inkscape:pageopacity="0.0"
     inkscape:pagecheckerboard="0"
     inkscape:deskcolor="#d1d1d1"
     inkscape:document-units="mm"
     showgrid="true"
     inkscape:zoom="0.078353431"
     inkscape:cx="-363.73647"
     inkscape:cy="1933.5465"
     inkscape:window-width="1470"
     inkscape:window-height="822"
     inkscape:window-x="0"
     inkscape:window-y="33"
     inkscape:window-maximized="0"
     inkscape:current-layer="layer1"><inkscape:grid
       id="grid1"
       units="mm"
       originx="0"
       originy="0"
       spacingx="0.99999997"
       spacingy="0.99999997"
       empcolor="#0099e5"
       empopacity="0.30196078"
       color="#0099e5"
       opacity="0.14901961"
       empspacing="5"
       enabled="true"
       visible="true" /></sodipodi:namedview><defs
     id="defs1"><linearGradient
       id="linearGradient5"><stop
         style="stop-color:#ffffff;stop-opacity:1;"
         offset="0"
         id="stop4" /></linearGradient><linearGradient
       id="swatch3"
       inkscape:swatch="solid"><stop
         style="stop-color:#000000;stop-opacity:1;"
         offset="0"
         id="stop3" /></linearGradient><linearGradient
       id="swatch2"><stop
         style="stop-color:#000000;stop-opacity:1;"
         offset="0"
         id="stop2" /></linearGradient><clipPath
       clipPathUnits="userSpaceOnUse"
       id="clipPath6"><rect
         style="fill:#ffffff;fill-rule:evenodd;stroke:#ffffff;stroke-width:0.264999;paint-order:markers fill stroke"
         id="rect7"
         width="922.46198"
         height="763.75885"
         x="19.1325"
         y="20.1325"
         transform="rotate(45)" /></clipPath><clipPath
       clipPathUnits="userSpaceOnUse"
       id="clipPath6-5"><rect
         style="fill:#ffffff;fill-rule:evenodd;stroke:#ffffff;stroke-width:0.264999;paint-order:markers fill stroke"
         id="rect7-7"
         width="922.46198"
         height="763.75885"
         x="19.1325"
         y="20.1325"
         transform="rotate(45)" /></clipPath></defs><g
     inkscape:label="Katman 1"
     inkscape:groupmode="layer"
     id="layer1"><g
       id="g20"><g
         id="g19"><rect
           style="fill:#192676;fill-opacity:1;stroke-width:0.194577"
           id="rect1-7"
           width="171.84564"
           height="628.63495"
           x="828"
           y="20" /><rect
           style="fill:#192676;fill-opacity:1;stroke-width:0.194539"
           id="rect1-7-5-5"
           width="171.84564"
           height="628.39044"
           x="828"
           y="-648.3905"
           transform="rotate(90)" /><rect
           style="fill:#192676;fill-opacity:1;stroke-width:0.242957"
           id="rect1"
           width="171.84564"
           height="980.11212"
           x="19"
           y="20" /><rect
           style="fill:#192676;fill-opacity:1;stroke-width:0.242949"
           id="rect1-7-5"
           width="171.84599"
           height="980.04517"
           x="20"
           y="-999.04517"
           transform="rotate(90)" /></g><g
         id="g6"><rect
           style="fill:#ff003c;fill-opacity:1;fill-rule:evenodd;stroke:#ffffff;stroke-width:0.265;stroke-dasharray:none;stroke-opacity:1;paint-order:markers fill stroke"
           id="rect2"
           width="342"
           height="342"
           x="658.13251"
           y="658.13251"
           inkscape:label="redblock" /></g></g><g
       id="g1"
       transform="translate(-16.790977,-18.598665)"><rect
         style="fill:#00ffff;fill-opacity:1;fill-rule:evenodd;stroke:#ffffff;stroke-width:0.330555;paint-order:markers fill stroke"
         id="rect3"
         width="1168.5077"
         height="130.82413"
         x="-625.1311"
         y="249.81657"
         transform="rotate(-45)"
         clip-path="url(#clipPath6-5)" /></g><path
       d="m 246.59473,154.99682 -76.66362,0.002 c -4.41383,-0.001 -7.99429,3.57909 -7.99566,7.99567 v 15.92 h 20.19528 c 1.55359,-3.13941 4.77634,-5.29833 8.51731,-5.29833 3.76188,0.003 7.00384,2.18875 8.54576,5.35492 l 19.46308,3.4e-4 c 1.5433,-3.16548 4.78457,-5.35731 8.54851,-5.35422 5.25511,-0.001 9.5129,4.25676 9.51359,9.51359 3.4e-4,5.25785 -4.25745,9.51564 -9.51667,9.51668 -3.95566,-0.002 -7.34714,-2.41681 -8.78173,-5.85289 H 200.27 l 23.88157,23.88324 a 9.6129476,9.6129476 0 0 1 3.05162,-0.5069 c 5.25511,-0.001 9.51324,4.25712 9.51599,9.51599 -0.001,5.25648 -4.26088,9.51634 -9.51359,9.51359 -5.25888,-0.003 -9.51668,-4.26054 -9.51565,-9.51564 a 9.5324359,9.5324359 0 0 1 0.73393,-3.67031 l -24.10498,-24.10464 a 9.3985719,9.3985719 0 0 1 -3.67051,0.73412 c -3.97966,0.003 -7.38006,-2.44013 -8.8047,-5.90536 l -19.90892,-0.001 -0.002,52.56652 c 0.001,4.41829 3.58183,7.99909 7.99841,7.99841 l 76.66499,-0.002 c 4.41487,0.001 7.99464,-3.57874 7.99635,-7.99634 l 5.9e-4,-76.30764 c -5.9e-4,-4.41657 -3.58355,-7.99943 -7.9991,-7.99909"
       fill="#de4c36"
       id="path1"
       style="stroke-width:0.485013" /></g></svg>
