<?xml version="1.0" encoding="UTF-8" standalone="no"?>
<!-- Created with Inkscape (http://www.inkscape.org/) -->

<svg
   width="1024mm"
   height="1024mm"
   viewBox="0 0 1024 1024"
   version="1.1"
   id="svg1"
   inkscape:version="1.4.3 (0d15f75, 2025-12-25)"
   sodipodi:docname="ProjectTickMNVerror.svg"
   xml:space="preserve"
   xmlns:inkscape="http://www.inkscape.org/namespaces/inkscape"
   xmlns:sodipodi="http://sodipodi.sourceforge.net/DTD/sodipodi-0.dtd"
   xmlns:xlink="http://www.w3.org/1999/xlink"
   xmlns="http://www.w3.org/2000/svg"
   xmlns:svg="http://www.w3.org/2000/svg"><sodipodi:namedview
     id="namedview1"
     pagecolor="#ffffff"
     bordercolor="#000000"
     borderopacity="0.25"
     inkscape:showpageshadow="2"
     inkscape:pageopacity="0.0"
     inkscape:pagecheckerboard="0"
     inkscape:deskcolor="#d1d1d1"
     inkscape:document-units="mm"
     showgrid="true"
     inkscape:zoom="0.10584013"
     inkscape:cx="1780.988"
     inkscape:cy="2461.2593"
     inkscape:window-width="1470"
     inkscape:window-height="822"
     inkscape:window-x="0"
     inkscape:window-y="33"
     inkscape:window-maximized="0"
     inkscape:current-layer="layer1"><inkscape:grid
       id="grid1"
       units="mm"
       originx="0"
       originy="0"
       spacingx="0.99999997"
       spacingy="0.99999997"
       empcolor="#0099e5"
       empopacity="0.30196078"
       color="#0099e5"
       opacity="0.14902"
       empspacing="5"
       enabled="true"
       visible="true" /></sodipodi:namedview><defs
     id="defs1"><linearGradient
       id="linearGradient5"><stop
         style="stop-color:#ffffff;stop-opacity:1;"
         offset="0"
         id="stop4" /></linearGradient><linearGradient
       id="swatch3"
       inkscape:swatch="solid"><stop
         style="stop-color:#000000;stop-opacity:1;"
         offset="0"
         id="stop3" /></linearGradient><linearGradient
       id="swatch2"><stop
         style="stop-color:#000000;stop-opacity:1;"
         offset="0"
         id="stop2" /></linearGradient><linearGradient
       inkscape:collect="always"
       xlink:href="#linearGradient5"
       id="linearGradient4"
       gradientUnits="userSpaceOnUse"
       x1="658"
       y1="829"
       x2="1000"
       y2="829"
       gradientTransform="translate(-10.367572,-10.367499)" /><clipPath
       clipPathUnits="userSpaceOnUse"
       id="clipPath6"><rect
         style="fill:#ffffff;fill-rule:evenodd;stroke:#ffffff;stroke-width:0.264999;paint-order:markers fill stroke"
         id="rect7"
         width="922.46198"
         height="763.75885"
         x="19.1325"
         y="20.1325"
         transform="rotate(45)" /></clipPath><style
       id="style1">.cls-1{fill:#b71616;}.cls-2{fill:#e21b1b;fill-rule:evenodd;}.cls-3{fill:#fff;}</style></defs><g
     inkscape:label="Katman 1"
     inkscape:groupmode="layer"
     id="layer1"><g
       id="g5"><rect
         style="fill:#050505;stroke-width:0.242949;fill-opacity:1"
         id="rect1-7"
         width="171.84564"
         height="980.04517"
         x="828"
         y="20" /><rect
         style="fill:#050505;stroke-width:0.242949;fill-opacity:1"
         id="rect1-7-5-5"
         width="171.84564"
         height="980.04517"
         x="828"
         y="-1000.0452"
         transform="rotate(90)" /><rect
         style="fill:#050505;stroke-width:0.242957;fill-opacity:1"
         id="rect1"
         width="171.84564"
         height="980.11212"
         x="19"
         y="20" /><rect
         style="fill:#050505;stroke-width:0.242949;fill-opacity:1"
         id="rect1-7-5"
         width="171.84599"
         height="980.04517"
         x="20"
         y="-999.04517"
         transform="rotate(90)" /></g><g
       id="g6"><rect
         style="fill:url(#linearGradient4);fill-opacity:1;fill-rule:evenodd;stroke:#ffffff;stroke-width:0.265;stroke-dasharray:none;stroke-opacity:1;paint-order:markers fill stroke"
         id="rect2-8"
         width="352"
         height="352"
         x="647.63251"
         y="647.63251"
         inkscape:label="backgroundofblock" /><rect
         style="fill:#ff003c;fill-opacity:1;fill-rule:evenodd;stroke:#ffffff;stroke-width:0.265;stroke-dasharray:none;stroke-opacity:1;paint-order:markers fill stroke"
         id="rect2"
         width="342"
         height="342"
         x="658.13251"
         y="658.13251"
         inkscape:label="redblock" /></g><rect
       style="fill:#098f00;fill-rule:evenodd;stroke:#ffffff;stroke-width:0.330555;paint-order:markers fill stroke;fill-opacity:1"
       id="rect3"
       width="1168.5077"
       height="130.82413"
       x="-625.1311"
       y="249.81657"
       transform="rotate(-45)"
       clip-path="url(#clipPath6)" /><g
       id="g7"
       transform="matrix(2.1249529,0,0,2.1249529,671.2823,67.687873)"><path
         class="cls-1"
         d="M 2.35,84.43 45.29,10.2 45.46,9.93 v 0 a 22.92,22.92 0 0 1 7,-7.23 17,17 0 0 1 9.12,-2.7 16.78,16.78 0 0 1 9.11,2.69 22.79,22.79 0 0 1 7,7.26 c 0.13,0.21 0.25,0.42 0.36,0.64 l 42.24,73.34 0.23,0.44 v 0 a 22.22,22.22 0 0 1 2.37,10.19 17.59,17.59 0 0 1 -2.16,8.35 16,16 0 0 1 -6.94,6.61 l -0.58,0.26 a 21.34,21.34 0 0 1 -9.11,1.74 v 0 H 17.62 c -0.23,0 -0.44,0 -0.66,0 A 18.07,18.07 0 0 1 10.76,110.37 16.46,16.46 0 0 1 3,104.26 17.59,17.59 0 0 1 0,94.68 23,23 0 0 1 1.57,85.94 8.24,8.24 0 0 1 2.34,84.43 Z"
         id="path1" /><path
         class="cls-2"
         d="m 9,88.76 43.15,-74.6 c 5.23,-8.25 13.53,-8.46 18.87,0 l 42.44,73.7 c 3.38,6.81 1.7,16 -9.34,15.77 h -86.5 c -7.27,0.18 -12,-6.19 -8.64,-14.87 z"
         id="path2" /><path
         class="cls-3"
         d="m 57.57,82.7 a 5.51,5.51 0 0 1 3.48,-1.58 5.75,5.75 0 0 1 2.4,0.35 5.82,5.82 0 0 1 2,1.31 5.53,5.53 0 0 1 1.62,3.55 6.05,6.05 0 0 1 -0.08,1.4 5.54,5.54 0 0 1 -5.64,4.6 5.67,5.67 0 0 1 -2.27,-0.52 5.56,5.56 0 0 1 -2.82,-2.94 5.65,5.65 0 0 1 -0.35,-1.27 5.83,5.83 0 0 1 -0.06,-1.31 v 0 a 6.19,6.19 0 0 1 0.57,-2 4.57,4.57 0 0 1 1.13,-1.56 z m 8.16,-10.24 c -0.2,4.79 -8.31,4.8 -8.5,0 -0.82,-8.21 -2.92,-29.39 -2.85,-37.1 0.07,-2.38 2,-3.79 4.56,-4.33 a 12.83,12.83 0 0 1 5,0 c 2.61,0.56 4.65,2 4.65,4.44 v 0.24 z"
         id="path3" /></g></g></svg>
