<?xml version="1.0" encoding="UTF-8" standalone="no"?>
<!-- Created with Inkscape (http://www.inkscape.org/) -->

<svg
   width="1024mm"
   height="1024mm"
   viewBox="0 0 1024 1024"
   version="1.1"
   id="svg1"
   inkscape:version="1.4.3 (0d15f75, 2025-12-25)"
   sodipodi:docname="ProjectTickMNVquest.svg"
   xml:space="preserve"
   xmlns:inkscape="http://www.inkscape.org/namespaces/inkscape"
   xmlns:sodipodi="http://sodipodi.sourceforge.net/DTD/sodipodi-0.dtd"
   xmlns:xlink="http://www.w3.org/1999/xlink"
   xmlns="http://www.w3.org/2000/svg"
   xmlns:svg="http://www.w3.org/2000/svg"><sodipodi:namedview
     id="namedview1"
     pagecolor="#ffffff"
     bordercolor="#000000"
     borderopacity="0.25"
     inkscape:showpageshadow="2"
     inkscape:pageopacity="0.0"
     inkscape:pagecheckerboard="0"
     inkscape:deskcolor="#d1d1d1"
     inkscape:document-units="mm"
     showgrid="true"
     inkscape:zoom="0.10584013"
     inkscape:cx="1780.988"
     inkscape:cy="2461.2593"
     inkscape:window-width="1470"
     inkscape:window-height="822"
     inkscape:window-x="0"
     inkscape:window-y="33"
     inkscape:window-maximized="0"
     inkscape:current-layer="layer1"><inkscape:grid
       id="grid1"
       units="mm"
       originx="0"
       originy="0"
       spacingx="0.99999997"
       spacingy="0.99999997"
       empcolor="#0099e5"
       empopacity="0.30196078"
       color="#0099e5"
       opacity="0.14902"
       empspacing="5"
       enabled="true"
       visible="true" /></sodipodi:namedview><defs
     id="defs1"><linearGradient
       id="linearGradient5"><stop
         style="stop-color:#ffffff;stop-opacity:1;"
         offset="0"
         id="stop4" /></linearGradient><linearGradient
       id="swatch3"
       inkscape:swatch="solid"><stop
         style="stop-color:#000000;stop-opacity:1;"
         offset="0"
         id="stop3" /></linearGradient><linearGradient
       id="swatch2"><stop
         style="stop-color:#000000;stop-opacity:1;"
         offset="0"
         id="stop2" /></linearGradient><linearGradient
       inkscape:collect="always"
       xlink:href="#linearGradient5"
       id="linearGradient4"
       gradientUnits="userSpaceOnUse"
       x1="658"
       y1="829"
       x2="1000"
       y2="829"
       gradientTransform="translate(-10.367572,-10.367499)" /><clipPath
       clipPathUnits="userSpaceOnUse"
       id="clipPath6"><rect
         style="fill:#ffffff;fill-rule:evenodd;stroke:#ffffff;stroke-width:0.264999;paint-order:markers fill stroke"
         id="rect7"
         width="922.46198"
         height="763.75885"
         x="19.1325"
         y="20.1325"
         transform="rotate(45)" /></clipPath><style
       id="style1">.cls-1{fill:#b71616;}.cls-2{fill:#e21b1b;fill-rule:evenodd;}.cls-3{fill:#fff;}</style></defs><g
     inkscape:label="Katman 1"
     inkscape:groupmode="layer"
     id="layer1"><g
       id="g5"><rect
         style="fill:#050505;stroke-width:0.242949;fill-opacity:1"
         id="rect1-7"
         width="171.84564"
         height="980.04517"
         x="828"
         y="20" /><rect
         style="fill:#050505;stroke-width:0.242949;fill-opacity:1"
         id="rect1-7-5-5"
         width="171.84564"
         height="980.04517"
         x="828"
         y="-1000.0452"
         transform="rotate(90)" /><rect
         style="fill:#050505;stroke-width:0.242957;fill-opacity:1"
         id="rect1"
         width="171.84564"
         height="980.11212"
         x="19"
         y="20" /><rect
         style="fill:#050505;stroke-width:0.242949;fill-opacity:1"
         id="rect1-7-5"
         width="171.84599"
         height="980.04517"
         x="20"
         y="-999.04517"
         transform="rotate(90)" /></g><g
       id="g6"><rect
         style="fill:url(#linearGradient4);fill-opacity:1;fill-rule:evenodd;stroke:#ffffff;stroke-width:0.265;stroke-dasharray:none;stroke-opacity:1;paint-order:markers fill stroke"
         id="rect2-8"
         width="352"
         height="352"
         x="647.63251"
         y="647.63251"
         inkscape:label="backgroundofblock" /><rect
         style="fill:#ff003c;fill-opacity:1;fill-rule:evenodd;stroke:#ffffff;stroke-width:0.265;stroke-dasharray:none;stroke-opacity:1;paint-order:markers fill stroke"
         id="rect2"
         width="342"
         height="342"
         x="658.13251"
         y="658.13251"
         inkscape:label="redblock" /></g><rect
       style="fill:#098f00;fill-rule:evenodd;stroke:#ffffff;stroke-width:0.330555;paint-order:markers fill stroke;fill-opacity:1"
       id="rect3"
       width="1168.5077"
       height="130.82413"
       x="-625.1311"
       y="249.81657"
       transform="rotate(-45)"
       clip-path="url(#clipPath6)" /><g
       style="clip-rule:evenodd;fill:#ffffff;fill-rule:evenodd;image-rendering:optimizeQuality;shape-rendering:geometricPrecision;text-rendering:geometricPrecision"
       id="g8"
       transform="matrix(0.36237608,0,0,0.36237608,836.53029,29.690697)"><path
         d="m 73.5,0 h 354.32 v 395.44 c -0.64,11.05 -14.91,11.3 -30.32,10.62 H 68.28 c -21.33,0 -38.77,17.43 -38.77,38.76 0,21.34 17.44,38.77 38.77,38.77 H 411.67 V 442.34 H 442 v 52.43 c 0,9.55 -7.8,17.35 -17.35,17.35 H 69.78 C 22.54,511.76 0,494.94 0,456.56 V 73.5 C 0,33.07 33.07,0 73.5,0 Z m 107.17,253.02 v -10.73 c 0,-12.59 1,-22.66 2.95,-30.13 1.97,-7.48 4.95,-13.5 8.88,-18.07 3.87,-4.52 8.66,-8.66 14.31,-12.32 4.89,-3.23 9.25,-6.29 13.12,-9.31 3.88,-2.95 6.89,-6.13 9.15,-9.46 2.26,-3.39 3.39,-7.21 3.39,-11.46 0,-3.82 -0.92,-7.21 -2.75,-10.11 -1.82,-2.91 -4.3,-5.17 -7.42,-6.78 -3.17,-1.56 -6.61,-2.37 -10.43,-2.37 -4.15,0 -7.96,0.92 -11.41,2.85 -3.49,1.88 -6.29,4.52 -8.39,7.91 -2.1,3.34 -3.12,7.26 -3.12,11.67 h -58.69 c 0.11,-16.78 3.93,-30.44 11.46,-40.93 7.48,-10.55 17.43,-18.24 29.8,-23.19 12.37,-4.95 25.98,-7.37 40.78,-7.37 16.35,0 30.93,2.37 43.78,7.16 12.86,4.78 22.97,11.94 30.4,21.51 7.37,9.64 11.08,21.58 11.08,35.94 0,9.25 -1.56,17.37 -4.74,24.37 -3.17,6.99 -7.58,13.12 -13.17,18.45 -5.6,5.32 -12.16,10.17 -19.64,14.52 -5.54,3.17 -10.16,6.51 -13.88,9.9 -3.76,3.39 -6.59,7.25 -8.5,11.57 -1.9,4.29 -2.85,9.52 -2.85,15.65 v 10.73 z m 27.97,82.28 c -8.88,0 -16.48,-3.1 -22.76,-9.3 -6.3,-6.22 -9.36,-13.83 -9.36,-22.76 0,-8.71 3.07,-16.19 9.36,-22.38 6.3,-6.18 13.88,-9.25 22.76,-9.25 8.39,0 15.82,3.07 22.27,9.25 6.45,6.19 9.84,13.67 9.84,22.38 0,5.92 -1.66,11.35 -4.68,16.2 -3.01,4.84 -6.94,8.7 -11.72,11.56 -4.85,2.89 -10.06,4.3 -15.71,4.3 z M 68.17,452.81 h 315.37 c 3.19,0 5.8,2.62 5.8,5.8 v 3.53 c 0,3.18 -2.61,5.8 -5.8,5.8 H 68.17 c -3.18,0 -5.79,-2.61 -5.79,-5.8 v -3.53 c 0,-3.19 2.6,-5.8 5.79,-5.8 z m 0,-29.96 h 315.37 c 3.19,0 5.8,2.62 5.8,5.8 v 3.53 c 0,3.18 -2.61,5.8 -5.8,5.8 H 68.17 c -3.18,0 -5.79,-2.61 -5.79,-5.8 v -3.53 c 0,-3.19 2.6,-5.8 5.79,-5.8 z"
         id="path1"
         style="fill:#ffffff" /></g></g></svg>
