<?xml version="1.0" encoding="UTF-8" standalone="no"?>
<!-- Created with Inkscape (http://www.inkscape.org/) -->

<svg
   width="1024mm"
   height="1024mm"
   viewBox="0 0 1024 1024"
   version="1.1"
   id="svg1"
   inkscape:version="1.4.3 (0d15f75, 2025-12-25)"
   sodipodi:docname="ProjectTickMNVinfo.svg"
   xml:space="preserve"
   xmlns:inkscape="http://www.inkscape.org/namespaces/inkscape"
   xmlns:sodipodi="http://sodipodi.sourceforge.net/DTD/sodipodi-0.dtd"
   xmlns:xlink="http://www.w3.org/1999/xlink"
   xmlns="http://www.w3.org/2000/svg"
   xmlns:svg="http://www.w3.org/2000/svg"><sodipodi:namedview
     id="namedview1"
     pagecolor="#ffffff"
     bordercolor="#000000"
     borderopacity="0.25"
     inkscape:showpageshadow="2"
     inkscape:pageopacity="0.0"
     inkscape:pagecheckerboard="0"
     inkscape:deskcolor="#d1d1d1"
     inkscape:document-units="mm"
     showgrid="true"
     inkscape:zoom="0.10584013"
     inkscape:cx="1780.988"
     inkscape:cy="2461.2593"
     inkscape:window-width="1470"
     inkscape:window-height="822"
     inkscape:window-x="0"
     inkscape:window-y="33"
     inkscape:window-maximized="0"
     inkscape:current-layer="layer1"><inkscape:grid
       id="grid1"
       units="mm"
       originx="0"
       originy="0"
       spacingx="0.99999997"
       spacingy="0.99999997"
       empcolor="#0099e5"
       empopacity="0.30196078"
       color="#0099e5"
       opacity="0.14902"
       empspacing="5"
       enabled="true"
       visible="true" /></sodipodi:namedview><defs
     id="defs1"><linearGradient
       id="linearGradient5"><stop
         style="stop-color:#ffffff;stop-opacity:1;"
         offset="0"
         id="stop4" /></linearGradient><linearGradient
       id="swatch3"
       inkscape:swatch="solid"><stop
         style="stop-color:#000000;stop-opacity:1;"
         offset="0"
         id="stop3" /></linearGradient><linearGradient
       id="swatch2"><stop
         style="stop-color:#000000;stop-opacity:1;"
         offset="0"
         id="stop2" /></linearGradient><linearGradient
       inkscape:collect="always"
       xlink:href="#linearGradient5"
       id="linearGradient4"
       gradientUnits="userSpaceOnUse"
       x1="658"
       y1="829"
       x2="1000"
       y2="829"
       gradientTransform="translate(-10.367572,-10.367499)" /><clipPath
       clipPathUnits="userSpaceOnUse"
       id="clipPath6"><rect
         style="fill:#ffffff;fill-rule:evenodd;stroke:#ffffff;stroke-width:0.264999;paint-order:markers fill stroke"
         id="rect7"
         width="922.46198"
         height="763.75885"
         x="19.1325"
         y="20.1325"
         transform="rotate(45)" /></clipPath><style
       id="style1">.cls-1{fill:#b71616;}.cls-2{fill:#e21b1b;fill-rule:evenodd;}.cls-3{fill:#fff;}</style></defs><g
     inkscape:label="Katman 1"
     inkscape:groupmode="layer"
     id="layer1"><g
       id="g5"><rect
         style="fill:#050505;stroke-width:0.242949;fill-opacity:1"
         id="rect1-7"
         width="171.84564"
         height="980.04517"
         x="828"
         y="20" /><rect
         style="fill:#050505;stroke-width:0.242949;fill-opacity:1"
         id="rect1-7-5-5"
         width="171.84564"
         height="980.04517"
         x="828"
         y="-1000.0452"
         transform="rotate(90)" /><rect
         style="fill:#050505;stroke-width:0.242957;fill-opacity:1"
         id="rect1"
         width="171.84564"
         height="980.11212"
         x="19"
         y="20" /><rect
         style="fill:#050505;stroke-width:0.242949;fill-opacity:1"
         id="rect1-7-5"
         width="171.84599"
         height="980.04517"
         x="20"
         y="-999.04517"
         transform="rotate(90)" /></g><g
       id="g6"><rect
         style="fill:url(#linearGradient4);fill-opacity:1;fill-rule:evenodd;stroke:#ffffff;stroke-width:0.265;stroke-dasharray:none;stroke-opacity:1;paint-order:markers fill stroke"
         id="rect2-8"
         width="352"
         height="352"
         x="647.63251"
         y="647.63251"
         inkscape:label="backgroundofblock" /><rect
         style="fill:#ff003c;fill-opacity:1;fill-rule:evenodd;stroke:#ffffff;stroke-width:0.265;stroke-dasharray:none;stroke-opacity:1;paint-order:markers fill stroke"
         id="rect2"
         width="342"
         height="342"
         x="658.13251"
         y="658.13251"
         inkscape:label="redblock" /></g><rect
       style="fill:#098f00;fill-rule:evenodd;stroke:#ffffff;stroke-width:0.330555;paint-order:markers fill stroke;fill-opacity:1"
       id="rect3"
       width="1168.5077"
       height="130.82413"
       x="-625.1311"
       y="249.81657"
       transform="rotate(-45)"
       clip-path="url(#clipPath6)" /><g
       style="clip-rule:evenodd;fill:#ffffff;fill-rule:evenodd;image-rendering:optimizeQuality;shape-rendering:geometricPrecision;text-rendering:geometricPrecision"
       id="g8"
       transform="matrix(0.49894328,0,0,0.49894328,752.1282,14.68959)"><path
         fill-rule="nonzero"
         d="M 256,0 C 326.69,0 390.7,28.66 437.02,74.98 483.34,121.31 512,185.31 512,256 512,326.69 483.34,390.7 437.02,437.02 390.7,483.34 326.69,512 256,512 185.31,512 121.3,483.34 74.98,437.02 28.66,390.7 0,326.69 0,256 0,185.31 28.66,121.31 74.98,74.98 121.3,28.66 185.31,0 256,0 Z m 17.75,342.25 h 29.15 v 29.32 h -93.79 v -29.32 h 28.76 v -92.34 h -28.76 v -29.32 h 64.64 z M 245.81,191.88 c -7.08,-0.05 -13.12,-2.53 -18.2,-7.56 -5.08,-5.01 -7.56,-11.11 -7.56,-18.25 0,-7.01 2.48,-13.06 7.56,-18.08 5.08,-5.02 11.12,-7.55 18.2,-7.55 6.95,0 12.99,2.53 18.08,7.55 5.13,5.02 7.67,11.07 7.67,18.08 0,4.72 -1.2,9.07 -3.56,12.94 -2.36,3.93 -5.45,7.07 -9.31,9.37 -3.87,2.3 -8.17,3.45 -12.88,3.5 z M 417.71,94.29 C 376.33,52.92 319.15,27.32 256,27.32 192.85,27.32 135.67,52.92 94.29,94.29 52.92,135.68 27.32,192.85 27.32,256 c 0,63.15 25.6,120.33 66.97,161.71 41.38,41.37 98.56,66.97 161.71,66.97 63.15,0 120.33,-25.6 161.71,-66.97 41.37,-41.38 66.97,-98.56 66.97,-161.71 0,-63.15 -25.6,-120.32 -66.97,-161.71 z"
         id="path1-5"
         style="fill:#ffffff" /></g></g></svg>
